<?xml version="1.0" encoding="UTF-8"?>
<svg width="50" height="50" viewBox="0 0 50 50" xmlns="http://www.w3.org/2000/svg">
  <g fill="#PLACEHOLDER_COLOR" stroke="none" shape-rendering="crispEdges">
    <!-- Top center spike -->
    <rect x="24" y="0" width="2" height="8"/>
    
    <!-- Side top spikes -->
    <rect x="16" y="4" width="2" height="6"/>
    <rect x="32" y="4" width="2" height="6"/>
    
    <!-- Main head -->
    <rect x="12" y="10" width="26" height="8"/>
    
    <!-- Body core -->
    <rect x="8" y="18" width="34" height="8"/>
    
    <!-- Inner body detail -->
    <rect x="20" y="20" width="10" height="4"/>
    
    <!-- Bottom spikes pattern -->
    <rect x="8" y="26" width="2" height="6"/>
    <rect x="16" y="26" width="2" height="8"/>
    <rect x="24" y="26" width="2" height="6"/>
    <rect x="32" y="26" width="2" height="8"/>
    <rect x="40" y="26" width="2" height="6"/>
    
    <!-- Side arms -->
    <rect x="4" y="30" width="6" height="4"/>
    <rect x="40" y="30" width="6" height="4"/>
    
    <!-- Lower legs -->
    <rect x="12" y="34" width="4" height="6"/>
    <rect x="34" y="34" width="4" height="6"/>
    
    <!-- Wide feet -->
    <rect x="8" y="40" width="12" height="4"/>
    <rect x="30" y="40" width="12" height="4"/>
  </g>
  
  <!-- Eyes -->
  <g stroke="none" shape-rendering="crispEdges">
    <rect x="16" y="14" width="2" height="2"/>
    <rect x="32" y="14" width="2" height="2"/>
  </g>
</svg>
