<?xml version="1.0" encoding="UTF-8"?>
<svg width="50" height="50" viewBox="0 0 50 50" xmlns="http://www.w3.org/2000/svg">
  <!-- Retro Asteroid design -->
  <g fill="#PLACEHOLDER_COLOR">
    <!-- Main irregular asteroid shape -->
    <polygon points="25,2 35,8 45,15 42,25 48,35 38,42 28,48 18,45 8,38 5,28 12,18 15,8"/>
    
    <!-- Crater indentations -->
    <circle cx="20" cy="15" r="3" fill="rgba(0,0,0,0.3)"/>
    <circle cx="32" cy="22" r="2.5" fill="rgba(0,0,0,0.3)"/>
    <circle cx="15" cy="30" r="2" fill="rgba(0,0,0,0.3)"/>
    <circle cx="35" cy="35" r="2.5" fill="rgba(0,0,0,0.3)"/>
    
    <!-- Surface texture lines -->
    <path d="M12 20 L18 18 L22 20" stroke="rgba(0,0,0,0.2)" stroke-width="1" fill="none"/>
    <path d="M30 12 L35 14 L38 18" stroke="rgba(0,0,0,0.2)" stroke-width="1" fill="none"/>
    <path d="M25 35 L30 32 L35 38" stroke="rgba(0,0,0,0.2)" stroke-width="1" fill="none"/>
    <path d="M15 35 L20 38 L18 42" stroke="rgba(0,0,0,0.2)" stroke-width="1" fill="none"/>
    
    <!-- Small rock fragments -->
    <polygon points="10,12 12,10 15,12 13,15" fill="rgba(255,255,255,0.1)"/>
    <polygon points="38,28 40,26 42,30 39,32" fill="rgba(255,255,255,0.1)"/>
    <polygon points="22,40 25,38 27,42 24,44" fill="rgba(255,255,255,0.1)"/>
  </g>
</svg>