<?xml version="1.0" encoding="UTF-8"?>
<svg width="50" height="50" viewBox="0 0 50 50" xmlns="http://www.w3.org/2000/svg">
  <g fill="#PLACEHOLDER_COLOR" stroke="none" shape-rendering="crispEdges">
    <!-- Top antenna -->
    <rect x="18" y="2" width="2" height="4"/>
    <rect x="30" y="2" width="2" height="4"/>
    
    <!-- Head -->
    <rect x="10" y="6" width="30" height="8"/>
    
    <!-- Body -->
    <rect x="6" y="14" width="38" height="12"/>
    
    <!-- Bottom indentations -->
    <rect x="10" y="26" width="6" height="4"/>
    <rect x="20" y="26" width="10" height="4"/>
    <rect x="34" y="26" width="6" height="4"/>
    
    <!-- Arms/legs -->
    <rect x="2" y="30" width="8" height="6"/>
    <rect x="14" y="30" width="6" height="8"/>
    <rect x="30" y="30" width="6" height="8"/>
    <rect x="40" y="30" width="8" height="6"/>
    
    <!-- Feet -->
    <rect x="0" y="36" width="4" height="4"/>
    <rect x="8" y="36" width="4" height="4"/>
    <rect x="16" y="38" width="4" height="6"/>
    <rect x="30" y="38" width="4" height="6"/>
    <rect x="38" y="36" width="4" height="4"/>
    <rect x="46" y="36" width="4" height="4"/>
  </g>
  
  <!-- Eyes -->
  <g fill="black" stroke="none" shape-rendering="crispEdges">
    <rect x="14" y="10" width="4" height="4"/>
    <rect x="32" y="10" width="4" height="4"/>
  </g>
</svg>
